<svg width="321" height="185" viewBox="0 0 321 185" fill="none" xmlns="http://www.w3.org/2000/svg">
<g filter="url(#filter0_d)">
<path d="M72.2487 16.875C71.0626 18.2357 70.5953 20.233 70.8527 22.9275C71.1255 25.7842 71.6221 26.6203 74.7163 29.392C79.1307 33.3544 84.5014 39.2919 85.3363 41.1441C85.5862 41.6937 85.5836 41.896 85.3633 42.1158C85.123 42.3555 84.9253 42.3529 83.9778 42.0776C83.3474 41.9076 82.3456 41.753 81.7307 41.7451C80.3471 41.7272 79.3549 42.3619 78.07 44.0653C76.6907 45.9294 76.7126 45.9296 75.6645 44.6008C74.6699 43.3739 73.8413 42.7359 70.9039 40.9172C68.6679 39.5528 66.9292 38.8019 66.6488 39.0816C66.5287 39.2015 66.5874 39.5867 66.7953 40.156C67.35 41.5998 68.641 42.4866 72.7146 44.2592C75.0017 45.2398 76.3412 45.9451 76.3586 46.1274C76.409 46.6542 75.8054 48.8318 75.5916 48.8897C75.4637 48.9285 75.0297 48.5182 74.606 47.9866C74.1824 47.4551 73.3182 46.675 72.7085 46.2624C70.5765 44.8386 64.1165 41.2748 63.2149 41.0203C62.4249 40.7875 62.5967 41.4372 63.8088 43.3348L64.8421 44.9669L69.6732 47.7813C72.3219 49.3331 74.8291 50.782 75.2477 51.0302C76.0169 51.5056 76.0408 51.5261 77.0106 54.3311C77.8616 56.8107 79.2571 58.7916 81.9923 61.4777C84.6318 64.0817 85.0574 64.6335 84.89 65.1777C84.6503 65.8828 82.4446 65.0652 72.8384 60.712C70.2245 59.5248 68.0292 58.5859 67.9691 58.6458C67.909 58.7057 68.2054 59.0535 68.6356 59.4233C70.2586 60.8 70.429 61.8949 69.1513 62.526C68.4594 62.861 64.0071 62.8642 60.4863 62.5152C59.4024 62.4203 58.4142 62.4075 58.3121 62.4872C58.212 62.587 59.6891 63.3548 61.5712 64.229C69.2752 67.728 74.3311 70.8286 75.6188 72.8282C76.8051 74.685 76.6712 76.039 75.1234 77.5164C74.3223 78.3155 73.2804 78.8888 70.0435 80.3646C67.8162 81.3881 65.2188 82.6698 64.2847 83.2244C60.2765 85.5806 56.8508 88.7537 52.9766 93.6613C48.9279 98.8094 47.8091 99.7258 44.4444 100.552C43.5872 100.764 40.8904 101.235 38.4456 101.588C29.493 102.929 25.957 104.26 22.5209 107.554C20.2903 109.69 20.2715 109.953 22.4237 109.981C24.3783 110.006 25.9485 109.682 33.3678 107.674C45.0013 104.546 47.275 104.009 52.5264 103.186C56.7611 102.512 58.3779 101.987 62.0677 99.9707C67.1753 97.1835 68.9019 96.6594 74.6694 96.1876C85.5713 95.2761 93.9918 93.6447 98.2945 91.616C100.12 90.7492 105.117 87.4952 106.162 86.497C107.368 85.3389 107.778 84.3527 107.343 83.6995C106.834 82.9645 106.467 82.7979 102.675 81.6764C98.3845 80.3867 94.8392 78.8637 93.18 77.5675C91.7579 76.4564 91.2509 75.7416 91.1561 74.7489C90.9606 72.7026 94.0696 71.9536 98.233 73.0596C99.7612 73.4436 100.209 73.7731 100.948 75.0777C101.894 76.7087 102.935 77.7339 104.73 78.8498C107.809 80.7715 110.159 81.2672 113.438 80.6823L115.401 80.3434L116.413 81.2873C117.305 82.1284 117.604 82.2739 118.603 82.4083C119.98 82.5879 119.827 82.586 120.626 82.4546C121.055 82.359 121.402 82.0802 121.761 81.4778C122.421 80.3531 122.483 80.3135 124.042 80.3336C126.59 80.3665 130.142 81.5051 131.915 82.8433C133.455 84.0368 132.992 84.6986 130.598 84.6676C129.5 84.6535 129.268 84.7516 127.431 85.9623C125.015 87.5296 122.997 88.4546 120.704 89.0118C119.161 89.3966 118.462 89.428 113.719 89.3668C110.578 89.3262 108.651 89.362 108.969 89.4673C109.242 89.572 110.609 89.873 111.993 90.1337C115.503 90.8265 121.147 90.8994 123.633 90.284C125.583 89.8033 127.916 88.7407 129.963 87.4316C131.843 86.2216 132.9 86.0329 136.804 86.2654C138.615 86.39 139.865 86.3859 139.853 86.2643C139.843 86.163 139.058 85.7482 138.117 85.3111C136.239 84.4774 134.685 83.3647 134.069 82.4259C133.862 82.0995 133.478 81.0625 133.235 80.1286C132.256 76.5343 129.569 73.6667 125.297 71.6487C121.002 69.6304 113.346 68.7019 108.651 69.6125C106.348 70.0684 105.921 69.9618 104.831 68.6526C103.594 67.1797 101.574 63.7136 100.922 61.9448C100.158 59.9114 99.8254 56.8921 99.9725 53.1505C100.075 51.0069 100.019 50.1967 99.7192 49.1204C99.0794 46.7851 98.3096 45.8443 93.7118 41.7986C91.39 39.7654 88.9371 37.5078 88.2525 36.7705C85.0744 33.3502 81.7964 28.6538 77.0131 20.5991C75.3128 17.724 73.9779 16.1487 73.2751 16.1396C73.0555 16.1368 72.6053 16.4749 72.2487 16.875Z" fill="#F3B397" fill-opacity="0.82"/>
<path d="M67.5358 26.6749C67.3 27.1749 67.5639 28.5666 68.1419 29.8217C69.375 32.4534 73.0874 35.9221 77.4103 38.4731C82.2643 41.3328 83.0222 41.5036 81.7974 39.4153C79.9741 36.3131 73.4323 29.4878 70.1944 27.3331C68.6092 26.2663 67.8275 26.075 67.5358 26.6749Z" fill="#F3B397" fill-opacity="0.82"/>
<path d="M66.8329 34.7143C67.0358 36.8357 68.7075 38.5322 73.1365 41.1525C76.9375 43.3811 78.4392 43.9858 78.3696 43.2585C78.3175 42.713 76.8423 40.5549 75.6473 39.2681C73.7417 37.1851 68.6021 33.7687 67.3535 33.7525C66.7621 33.7448 66.7441 33.7849 66.8329 34.7143Z" fill="#F3B397" fill-opacity="0.82"/>
<path d="M26.6049 41.6699C26.7202 41.9565 27.3026 42.9823 27.9032 43.9676L28.9968 45.7331L43.5434 53.5731L58.1121 61.4134L61.186 62.2052C62.8823 62.6541 64.3663 62.9576 64.4709 62.8978C64.5956 62.8179 64.6588 62.5538 64.6317 62.2683C64.5969 61.9012 64.7925 61.6388 65.3173 61.3601C65.7135 61.1205 66.0435 60.8801 66.0358 60.7986C65.9952 60.3702 63.2999 57.5256 60.8633 55.3156C56.088 50.9987 53.9101 49.4235 47.105 45.326C43.4341 43.1211 41.7231 42.285 41.0705 42.3788C40.6569 42.4348 40.8288 42.6203 42.2396 43.7786C43.1481 44.5232 44.2142 45.5346 44.6139 46.0285C45.369 47.0157 45.6396 48.2413 45.2166 48.6639C44.1894 49.6901 36.9861 46.9729 30.2646 43.0598C28.4662 41.9985 26.8416 41.1432 26.7091 41.1415C26.5104 41.1391 26.4817 41.3017 26.6049 41.6699Z" fill="#F3B397" fill-opacity="0.82"/>
<path d="M297.15 48.8614C295.357 49.4481 292.866 50.7775 288.836 53.2858C284.932 55.7348 283.645 56.3076 283.22 55.774C282.917 55.3639 283.071 54.8987 284.144 53.0029C284.652 52.0953 285.015 51.2874 284.941 51.2052C284.68 50.9988 281.68 52.7686 278.943 54.7652C275.794 57.0409 273.998 58.5213 267.276 64.408C262.156 68.8729 260.236 70.433 260.021 70.2474C259.779 70.0209 260.573 69.1169 262.757 67.093C265.103 64.929 267.875 61.9172 267.661 61.752C267.611 61.6904 266.138 62.6264 264.402 63.8029C257.973 68.1496 253.528 70.6933 247.102 73.6791C243.098 75.5377 241.226 76.6718 241.633 77.0223C241.753 77.1254 243.002 76.8365 244.459 76.4284C248.653 75.1815 251.974 74.4721 254.121 74.3774C256.707 74.268 257.291 74.3972 257.361 75.1294C257.403 75.5768 256.989 76.0794 255.25 77.6823C254.056 78.7844 252.24 80.5083 251.234 81.4908C247.511 85.1406 246.587 88.1555 249.321 87.7432C252.138 87.2914 257.149 84.9174 262.622 81.3914C264.883 79.9575 267.177 78.6256 267.732 78.4498C278.824 74.7716 286.753 70.4642 291.371 65.5867C292.949 63.9005 293.335 63.3366 292.963 63.1288C292.823 63.0458 291.15 63.4917 289.247 64.077C285.723 65.1902 284.596 65.379 284.55 64.8909C284.494 64.3012 286.156 63.0425 292.763 58.7184C296.077 56.5463 297.313 55.4244 298.922 53.1495C300.166 51.4184 300.743 50.0851 300.66 49.2106L300.592 48.4988L299.446 48.4843C298.809 48.4965 297.767 48.6458 297.15 48.8614Z" fill="#F3B397" fill-opacity="0.82"/>
<path d="M66.2612 50.3107C66.2863 50.5739 67.4053 51.9632 69.1929 53.9273C71.227 56.1776 72.9688 57.4334 75.9491 58.8064C78.9953 60.1802 79.3155 59.8608 77.0677 57.6684C74.6509 55.3121 70.913 52.4332 68.4297 50.9858C67.2009 50.2825 66.2302 49.9868 66.2612 50.3107Z" fill="#F3B397" fill-opacity="0.82"/>
<path d="M203.506 67.1789C199.438 67.7123 196.418 69.8155 194.941 73.1512C194.527 74.0958 193.978 74.9981 193.708 75.1563C193.067 75.5522 190.649 75.7028 188.306 75.4905C187.224 75.3956 186.233 75.3424 186.127 75.3814C185.999 75.4202 187.657 76.4926 189.795 77.7734C192.515 79.4052 193.733 80.2294 193.853 80.5746C193.944 80.8385 193.928 81.8084 193.819 82.7366C193.454 85.5614 194.074 87.4692 196.238 90.165C197.307 91.4925 197.519 91.8793 197.619 92.689C197.696 93.4984 197.609 93.7398 197.011 94.3585C196.037 95.3969 193.993 96.482 190.449 97.9114C186.082 99.6737 183.97 100.96 183.248 102.345L182.913 102.967L183.462 102.974C183.769 102.978 185.866 102.46 188.106 101.822C192.394 100.604 192.866 100.509 192.774 100.912C192.582 101.658 184.565 104.666 172.827 108.395C165.918 110.609 162.122 112.156 160.136 113.606C159.44 114.122 159.064 114.542 159.089 114.805C159.122 115.149 159.215 115.211 159.623 115.115C159.902 115.058 163.031 114.553 166.592 113.993C178.808 112.049 181.146 111.756 181.497 112.226C181.573 112.328 181.301 112.688 180.875 113.046C178.805 114.778 178.499 115.238 179.167 115.813C180.146 116.654 183.747 115.589 192.995 111.708C197.841 109.689 198.797 109.378 198.67 109.881C198.575 110.264 190.199 115.471 186.634 117.365C185.195 118.135 185.146 118.073 188.491 119.147C192.331 120.349 195.135 120.345 199.267 119.105C201.418 118.466 204.869 116.975 206.801 115.868C210.189 113.952 213.419 110.841 212.843 110.085C212.716 109.902 211.802 109.506 210.83 109.19C209.855 108.854 208.784 108.416 208.457 108.21C207.452 107.55 206.774 106.187 205.614 102.534C203.957 97.3386 202.752 95.2818 199.672 92.3922C197.555 90.4246 196.905 89.345 196.72 87.6449C196.565 86.0261 197.282 84.3579 198.552 83.4245C200.209 82.1929 200.771 82.3417 202.211 84.341C204.387 87.4007 207.86 89.3455 211.216 89.389C213.125 89.4137 213.821 88.675 214.107 86.3949C214.37 84.3369 214.583 83.8141 215.316 83.4599C216.487 82.8687 218.891 83.7285 220.669 85.3684C221.849 86.475 223.242 88.6758 223.949 90.5645C224.631 92.4327 224.829 96.1136 224.296 97.6427C223.162 100.902 220.592 102.445 216.402 102.391C212.015 102.334 208.865 100.555 206.374 96.7232C205.397 95.215 205.3 95.1127 205.288 95.6784C205.231 97.3754 206.85 101.479 208.433 103.601C209.567 105.152 211.891 107.001 213.676 107.792C217.52 109.499 223.091 109.794 226.362 108.482L227.564 107.992L228.174 108.647C231.192 111.798 232.929 113.458 236.684 116.761C244.081 123.324 246.853 126.189 248.699 129.224C250.391 132.035 252.247 136.324 255.088 144.041C258.938 154.519 260.258 157.325 262.203 159.109C263.044 159.888 263.273 159.992 264.107 160.002C264.897 160.013 265.17 159.895 265.832 159.257C266.918 158.24 267.191 156.97 266.921 154.137C266.439 149.099 263.994 142.317 259.705 134.116C258.819 132.407 258.131 130.943 258.213 130.884C258.293 130.804 259.98 132.18 261.987 133.924C266.962 138.293 269.89 140.271 271.381 140.29C271.996 140.298 272.546 139.639 272.484 138.991C272.461 138.748 271.38 137.522 269.996 136.109C261.861 128.021 255.972 121.416 253.923 118.096C253.225 116.975 253.158 116.731 252.768 113.574C252.526 111.731 252.221 108.999 252.078 107.502C251.829 104.891 251.833 104.709 252.348 103.22C252.662 102.376 252.925 101.227 252.96 100.682C253.066 98.5814 251.305 94.5973 249.151 92.0027C248.062 90.6951 246.16 89.1345 244.802 88.4499C241.831 86.9361 241.832 86.0266 244.771 81.477C245.63 80.1542 246.166 79.1102 246.135 78.7865C246.089 78.3008 246.043 78.28 245.285 78.3712C244.83 78.426 242.958 78.7857 241.132 79.1662C233.523 80.7047 225.391 81.5896 223.546 81.0806C221.926 80.6352 220.757 79.4075 219.828 77.2531C217.372 71.5018 216.033 69.8676 212.682 68.5105C210.426 67.592 205.649 66.9035 203.506 67.1789Z" fill="#F3B397" fill-opacity="0.82"/>
<path d="M61.0097 69.2878C60.601 69.4276 60.2425 69.6297 60.2115 69.7736C60.0119 70.4925 69.6848 73.5641 73.633 74.0189L74.8682 74.1765L74.2852 73.6345C72.9002 72.3422 69.0451 70.2607 66.575 69.4717C65.1333 69.0028 62.1729 68.9089 61.0097 69.2878Z" fill="#F3B397" fill-opacity="0.82"/>
<path d="M60.8109 73.8026C59.9065 74.1245 60.2193 74.6241 61.7492 75.3015C65.6448 77.037 71.9044 77.638 71.7787 76.2714C71.7521 75.9816 69.3217 74.9434 67.0349 74.2584C65.2066 73.7228 61.7579 73.4605 60.8109 73.8026Z" fill="#F3B397" fill-opacity="0.82"/>
<path d="M61.0082 77.4799C60.8983 77.4998 59.813 77.5952 58.6346 77.648C57.4358 77.7216 56.4659 77.8596 56.4734 77.9431C56.4828 78.0475 57.0432 78.3232 57.7117 78.5581C60.8434 79.6268 68.1487 80.1875 68.3662 79.3759C68.5335 78.7515 62.2702 77.1148 61.0082 77.4799Z" fill="#F3B397" fill-opacity="0.82"/>
<path d="M44.6816 80.4707C42.5033 80.7835 41.0465 81.186 41.1398 81.4779C41.1715 81.5821 41.6161 81.8148 42.1219 81.9856C43.3865 82.4128 43.4114 82.9326 42.2203 83.3168C41.7019 83.4992 40.3491 83.8195 39.1894 84.0584C36.1453 84.6544 34.4456 85.5744 35.5318 85.9999C36.8708 86.5109 53.7221 86.7674 54.2122 86.2729C54.3551 86.1287 54.1726 85.8361 53.6403 85.374C52.3078 84.1979 52.4731 84.0539 55.755 83.3769C58.3382 82.8599 61.9004 81.8321 62.0543 81.5633C62.1693 81.3564 61.8476 81.2496 59.8805 80.9408C55.3327 80.1929 48.2481 79.9833 44.6816 80.4707Z" fill="#F3B397" fill-opacity="0.82"/>
<path d="M271.543 81.8588C270.589 82.0733 269.177 82.3644 268.395 82.5194C266.679 82.8685 263.409 84.3476 260.621 86.0167C257.73 87.7667 254.275 90.1047 254.296 90.3304C254.319 90.5767 264.645 90.4502 265.638 90.1747C266.695 89.8795 269.824 87.8453 271.792 86.1666C273.388 84.7706 274.748 82.9824 274.901 82.0207C274.984 81.4887 274.96 81.4679 274.142 81.4789C273.656 81.4938 272.499 81.6649 271.543 81.8588Z" fill="#F3B397" fill-opacity="0.82"/>
<path d="M42.679 88.4024C39.6886 88.6259 36.6541 89.3487 34.7079 90.2685C33.5331 90.8411 30.9409 93.0043 31.1829 93.2146C31.2574 93.2985 32.0125 93.2635 32.8511 93.1668C33.7121 93.0702 35.5922 92.8994 37.0539 92.7873C43.3619 92.2598 53.8261 89.6037 53.7301 88.5411C53.7151 88.3744 44.6279 88.253 42.679 88.4024Z" fill="#F3B397" fill-opacity="0.82"/>
<path d="M266.751 91.1737C264.563 91.521 259.061 93.2131 256.996 94.1593C255.206 94.9643 255.026 95.4157 256.281 96.0268C257.374 96.5538 262.16 96.7085 264.83 96.3046C268.923 95.6894 271.569 94.0695 271.405 92.2955C271.294 91.0991 269.613 90.6895 266.751 91.1737Z" fill="#F3B397" fill-opacity="0.82"/>
<path d="M43.1592 93.1933C33.4781 94.076 26.7852 95.8353 23.75 98.2727C22.6146 99.1867 21.1219 101.27 21.1793 101.889C21.2617 102.775 22.2999 102.724 27.2568 101.625C31.0373 100.761 33.1344 100.166 36.8061 98.8472C41.1657 97.2889 44.9013 95.7032 46.7912 94.5504C48.3467 93.6203 48.6619 93.1914 47.9503 92.9367C47.5149 92.7878 47.6685 92.7689 43.1592 93.1933Z" fill="#F3B397" fill-opacity="0.82"/>
<path d="M264.246 98.606C260.681 99.1861 256.302 100.314 255.62 100.863C255.186 101.209 255.188 101.229 255.593 101.77C255.82 102.061 256.321 102.437 256.67 102.606C257.969 103.217 264.258 103.759 267.637 103.569C269.403 103.464 269.815 103.365 270.201 102.978C271.135 102.04 270.874 99.9344 269.691 98.9117C269.063 98.3691 268.882 98.3259 267.484 98.3315C266.662 98.3227 265.186 98.4512 264.246 98.606Z" fill="#F3B397" fill-opacity="0.82"/>
<path d="M257.984 106.705C254.109 106.884 253.834 107.024 255.221 108.126C256.515 109.185 258.785 110.276 264.512 112.616C272.424 115.841 275.447 116.941 276.488 116.953C277.529 116.965 277.644 116.782 277.509 115.348C277.392 114.098 276.326 112.407 274.514 110.543C271.97 107.955 270.236 107.156 266.421 106.804C263.921 106.57 261.884 106.546 257.984 106.705Z" fill="#F3B397" fill-opacity="0.82"/>
<path d="M255.572 114.206C255.31 114.445 255.505 115.114 256.022 115.706C256.294 116.033 257.718 117.183 259.154 118.232C260.614 119.301 264.874 122.628 268.664 125.627C272.433 128.625 275.69 131.091 275.888 131.094C276.524 131.102 276.704 130.013 276.401 128.212C275.713 124.223 272.433 119.697 269.004 117.955C267.025 116.96 262.641 115.307 260.191 114.649C258.325 114.14 255.872 113.907 255.572 114.206Z" fill="#F3B397" fill-opacity="0.82"/>
</g>
<defs>
<filter id="filter0_d" x="0.828491" y="0.13958" width="319.839" height="183.863" filterUnits="userSpaceOnUse" color-interpolation-filters="sRGB">
<feFlood flood-opacity="0" result="BackgroundImageFix"/>
<feColorMatrix in="SourceAlpha" type="matrix" values="0 0 0 0 0 0 0 0 0 0 0 0 0 0 0 0 0 0 127 0"/>
<feOffset dy="4"/>
<feGaussianBlur stdDeviation="10"/>
<feColorMatrix type="matrix" values="0 0 0 0 0 0 0 0 0 0 0 0 0 0 0 0 0 0 0.5 0"/>
<feBlend mode="normal" in2="BackgroundImageFix" result="effect1_dropShadow"/>
<feBlend mode="normal" in="SourceGraphic" in2="effect1_dropShadow" result="shape"/>
</filter>
</defs>
</svg>
