<svg width="375" height="67" viewBox="0 0 375 67" fill="none" xmlns="http://www.w3.org/2000/svg">
<path d="M1.45263 43.0945L17.5374 1H367.457L347.221 43.0945H175.556H1.45263Z" stroke="#EEC2A4" stroke-opacity="0.88" stroke-width="2"/>
<path d="M22.8016 11.0236H375L353.803 55.1181H181.508H5.95258L22.8016 11.0236Z" fill="#FFDAB9" fill-opacity="0.98"/>
<g filter="url(#filter0_d)">
<path d="M80.7184 36.9209L82.2144 36.926L85.548 23.7373L84.052 23.7322L84.3188 22.6551L89.8187 22.6738L89.552 23.7509L88.056 23.7458L86.5892 29.5709L92.8811 29.5923L94.348 23.7673L92.852 23.7622L93.1187 22.6851L98.6187 22.7039L98.3519 23.7809L96.8559 23.7758L93.5224 36.9645L95.0184 36.9697L94.7516 38.0467L89.2516 38.028L89.5184 36.9509L91.0144 36.956L92.5701 30.7793L86.3001 30.7579L84.7224 36.9345L86.2184 36.9396L85.9517 38.0167L80.4517 37.998L80.7184 36.9209ZM102.771 38.3381C102.081 38.3357 101.576 38.1507 101.254 37.7829C100.947 37.4005 100.794 36.9087 100.796 36.3073C100.796 36.0874 100.812 35.8601 100.842 35.6255C100.886 35.391 100.946 35.1492 101.02 34.9001L102.862 28.2624L100.948 28.2558L101.193 27.2667L105.793 26.3803L103.218 35.5896C103.173 35.7655 103.151 35.9267 103.151 36.0734C103.149 36.484 103.34 36.69 103.721 36.6913C104.073 36.6925 104.469 36.5105 104.91 36.1454C105.366 35.7656 105.815 35.2611 106.256 34.632C106.698 34.0028 107.11 33.2709 107.494 32.4362C107.892 31.5869 108.21 30.6933 108.447 29.7554L109.225 26.656L111.6 26.6641L109.045 36.7095L109.44 36.8868L111.735 34.3866L112.394 34.8289L110.959 36.65C110.429 37.3522 109.966 37.8126 109.57 38.0313C109.173 38.2499 108.799 38.3587 108.447 38.3575C107.889 38.3556 107.494 38.2075 107.26 37.9134C107.041 37.6047 106.931 37.2669 106.932 36.9003C106.933 36.7096 106.955 36.5044 107 36.2845C107.045 36.0647 107.089 35.8741 107.133 35.713L107.511 34.2402L107.291 34.1735C106.997 34.7152 106.695 35.2421 106.385 35.7544C106.076 36.252 105.738 36.6909 105.37 37.071C105.017 37.4511 104.628 37.7578 104.202 37.991C103.776 38.2242 103.299 38.3399 102.771 38.3381ZM123.956 38.4103C123.369 38.4083 122.944 38.2529 122.681 37.944C122.432 37.6351 122.309 37.2901 122.31 36.9087C122.31 36.7474 122.332 36.5641 122.377 36.3589C122.422 36.1538 122.459 35.9706 122.488 35.8093L123.222 32.8638L119.548 32.8513L118.214 38.1268L115.838 38.1187L118.305 28.315L116.413 28.3086L116.658 27.3194L121.148 26.4327L119.837 31.7083L123.533 31.7209L124.778 26.7091L127.154 26.7172L124.62 36.7626L125.016 36.9399L127.31 34.4398L127.969 34.882L126.534 36.7031C126.019 37.3907 125.556 37.8511 125.145 38.0844C124.733 38.303 124.337 38.4116 123.956 38.4103ZM133.831 38.444C133.009 38.4412 132.416 38.1532 132.051 37.5799C131.7 37.0067 131.527 36.1921 131.529 35.1361C131.532 34.2268 131.666 33.2666 131.933 32.2555C132.199 31.2297 132.576 30.2924 133.062 29.4433C133.563 28.5797 134.166 27.8704 134.871 27.3155C135.591 26.7606 136.399 26.4847 137.293 26.4878C137.939 26.49 138.466 26.6531 138.876 26.9772C139.286 27.3012 139.571 27.8155 139.73 28.5201L139.95 28.5208L141.077 26.7647L142.265 26.7687L139.687 36.814L140.083 36.9913L142.377 34.4911L143.036 34.9334L141.601 36.7545C141.086 37.3981 140.645 37.8439 140.278 38.092C139.925 38.3401 139.558 38.4635 139.177 38.4622C138.619 38.4603 138.224 38.3123 137.99 38.0182C137.771 37.7241 137.662 37.3864 137.662 37.0051C137.663 36.8144 137.678 36.6091 137.708 36.3892C137.753 36.1694 137.797 35.9789 137.841 35.8177L138.175 34.4988L137.955 34.4321C137.69 35.0032 137.417 35.5376 137.137 36.0353C136.857 36.5183 136.548 36.9426 136.21 37.3081C135.886 37.659 135.526 37.9365 135.13 38.1404C134.733 38.3444 134.3 38.4456 133.831 38.444ZM134.759 36.7752C135.17 36.7766 135.596 36.558 136.037 36.1195C136.478 35.6664 136.89 35.1251 137.273 34.4957C137.67 33.8518 138.017 33.1783 138.312 32.4753C138.607 31.7723 138.821 31.1643 138.955 30.6514L139.066 30.2118C139.244 29.5084 139.245 28.9364 139.07 28.4958C138.895 28.0552 138.514 27.8339 137.928 27.8319C137.253 27.8296 136.614 28.1575 136.011 28.8154C135.423 29.4587 134.944 30.4471 134.574 31.7805C134.5 32.0296 134.426 32.3153 134.352 32.6378C134.292 32.9456 134.233 33.2607 134.173 33.5832C134.128 33.9057 134.084 34.2135 134.039 34.5067C134.009 34.7999 133.993 35.0566 133.993 35.2766C133.992 35.7459 134.042 36.1127 134.144 36.3771C134.246 36.6414 134.451 36.7741 134.759 36.7752ZM152.828 37.1668L154.324 37.1719L157.636 23.9831L156.14 23.978L156.407 22.9009L166.724 22.9361L165.747 26.8048L163.855 26.7983L164.543 24.0947L160.122 24.0796L156.832 37.1804L158.812 37.1872L158.545 38.2643L152.561 38.2439L152.828 37.1668ZM170.537 38.5692C169.467 38.5655 168.683 38.2549 168.186 37.6372C167.703 37.0195 167.463 36.1167 167.467 34.9287C167.468 34.3714 167.521 33.7775 167.625 33.1472C167.729 32.5169 167.885 31.8941 168.092 31.2788C168.313 30.6636 168.594 30.0778 168.932 29.5217C169.271 28.9508 169.668 28.4535 170.124 28.0297C170.58 27.5913 171.094 27.2484 171.667 27.001C172.254 26.739 172.907 26.6092 173.626 26.6117C174.007 26.613 174.374 26.6582 174.725 26.7474C175.092 26.822 175.414 26.9478 175.692 27.1247C175.985 27.3017 176.212 27.5372 176.373 27.831C176.548 28.125 176.635 28.4846 176.634 28.9099C176.633 29.2913 176.537 29.6869 176.345 30.097C176.153 30.4923 175.815 30.8651 175.33 31.2155C174.86 31.5659 174.214 31.8644 173.392 32.1109C172.57 32.3574 171.535 32.5226 170.288 32.6063C170.17 33.0752 170.073 33.5442 169.999 34.0133C169.939 34.4678 169.909 34.8784 169.908 35.245C169.905 36.4917 170.387 37.1167 171.355 37.12C172.015 37.1222 172.639 36.8457 173.227 36.2904C173.83 35.7351 174.396 34.9597 174.927 33.9641L175.674 34.3187C175.32 35.0215 174.967 35.6436 174.613 36.1851C174.26 36.7119 173.878 37.1579 173.466 37.5232C173.069 37.8738 172.628 38.1363 172.144 38.3107C171.659 38.485 171.124 38.5712 170.537 38.5692ZM170.466 31.8369C171.934 31.6512 172.976 31.3101 173.593 30.8136C174.21 30.3023 174.52 29.6581 174.522 28.8807C174.523 28.5141 174.436 28.2131 174.26 27.9778C174.099 27.7426 173.814 27.6243 173.403 27.6229C173.08 27.6218 172.787 27.6941 172.523 27.8399C172.258 27.971 172.008 28.2048 171.773 28.5413C171.537 28.8632 171.309 29.2951 171.087 29.837C170.881 30.379 170.674 31.0456 170.466 31.8369ZM177.789 41.6739L179.262 41.679L182.574 28.5342L180.682 28.5277L180.926 27.5386L185.219 26.6512L184.197 30.6077L184.417 30.6745C184.682 30.118 184.955 29.5983 185.234 29.1153C185.514 28.6175 185.816 28.1932 186.14 27.8423C186.478 27.4768 186.838 27.1921 187.22 26.988C187.616 26.7694 188.057 26.6609 188.541 26.6625C189.362 26.6653 189.948 26.9533 190.299 27.5265C190.664 28.0998 190.845 28.9144 190.842 29.9704C190.84 30.8797 190.706 31.8473 190.439 32.873C190.172 33.8841 189.789 34.8215 189.288 35.6851C188.802 36.5341 188.198 37.2361 187.478 37.791C186.773 38.3459 185.98 38.6219 185.1 38.6189C183.942 38.6149 183.217 38.0771 182.926 37.0054L182.706 37.0047L181.638 41.6871L183.618 41.6938L183.352 42.7489L177.522 42.729L177.789 41.6739ZM184.444 37.2746C185.118 37.2769 185.75 36.9564 186.338 36.3131C186.941 35.6551 187.428 34.6594 187.798 33.326C187.857 33.0769 187.924 32.7985 187.998 32.4907C188.072 32.1683 188.132 31.8458 188.176 31.5233C188.236 31.2008 188.281 30.893 188.311 30.5998C188.355 30.3066 188.378 30.05 188.379 29.83C188.38 29.3607 188.329 28.9938 188.227 28.7295C188.125 28.4651 187.92 28.3324 187.612 28.3314C187.187 28.3299 186.754 28.5558 186.313 29.0089C185.886 29.4475 185.474 29.9887 185.077 30.6327C184.694 31.2621 184.355 31.9283 184.06 32.6313C183.764 33.3343 183.55 33.9422 183.417 34.4551L183.306 34.8947C183.128 35.5981 183.127 36.1701 183.301 36.6107C183.476 37.0513 183.857 37.2726 184.444 37.2746ZM197.239 38.6603C196.418 38.6575 195.825 38.3694 195.46 37.7962C195.109 37.223 194.935 36.4084 194.938 35.3524C194.94 34.4431 195.075 33.4828 195.341 32.4717C195.608 31.446 195.984 30.5086 196.47 29.6596C196.971 28.7959 197.574 28.0867 198.28 27.5317C199 26.9769 199.807 26.7009 200.702 26.704C201.347 26.7062 201.875 26.8693 202.285 27.1934C202.694 27.5175 202.979 28.0318 203.139 28.7363L203.359 28.7371L204.485 26.9809L205.673 26.9849L203.096 37.0302L203.491 37.2076L205.786 34.7074L206.444 35.1496L205.01 36.9707C204.495 37.6143 204.054 38.0602 203.686 38.3082C203.334 38.5564 202.967 38.6798 202.585 38.6785C202.028 38.6766 201.632 38.5286 201.399 38.2344C201.179 37.9403 201.07 37.6026 201.071 37.2213C201.072 37.0306 201.087 36.8254 201.117 36.6055C201.161 36.3856 201.206 36.1951 201.25 36.0339L201.583 34.715L201.364 34.6483C201.098 35.2194 200.825 35.7538 200.546 36.2515C200.266 36.7346 199.957 37.1588 199.618 37.5244C199.295 37.8753 198.935 38.1527 198.538 38.3567C198.142 38.5607 197.709 38.6619 197.239 38.6603ZM198.168 36.9914C198.578 36.9928 199.004 36.7743 199.445 36.3358C199.886 35.8826 200.299 35.3413 200.681 34.712C201.079 34.068 201.425 33.3945 201.721 32.6915C202.016 31.9885 202.23 31.3806 202.363 30.8677L202.474 30.4281C202.652 29.7247 202.654 29.1527 202.479 28.7121C202.304 28.2715 201.923 28.0502 201.336 28.0482C200.662 28.0459 200.023 28.3737 199.42 29.0316C198.832 29.675 198.352 30.6633 197.982 31.9967C197.908 32.2458 197.834 32.5316 197.76 32.854C197.701 33.1618 197.641 33.4769 197.582 33.7994C197.537 34.1219 197.492 34.4298 197.447 34.7229C197.417 35.0162 197.402 35.2728 197.401 35.4928C197.4 35.9621 197.451 36.329 197.553 36.5933C197.655 36.8577 197.86 36.9904 198.168 36.9914ZM213.111 38.7144C212.055 38.7108 211.279 38.4075 210.782 37.8044C210.284 37.1867 210.037 36.3059 210.04 35.1619C210.042 34.3112 210.162 33.395 210.399 32.4131C210.636 31.4312 210.991 30.5231 211.462 29.6887C211.948 28.8397 212.559 28.1378 213.294 27.5829C214.043 27.0282 214.924 26.7525 215.936 26.7559C216.86 26.7591 217.578 26.9815 218.09 27.4233C218.617 27.8504 218.88 28.4087 218.878 29.098C218.876 29.626 218.729 30.0802 218.434 30.4605C218.14 30.8408 217.722 31.0301 217.179 31.0282C216.768 31.0268 216.468 30.9084 216.278 30.6731C216.088 30.4378 215.993 30.1588 215.994 29.8362C215.995 29.4988 216.128 29.1619 216.392 28.8255C216.657 28.4891 217.076 28.3072 217.648 28.2798L217.648 28.0818C217.282 27.8312 216.799 27.7049 216.197 27.7028C215.875 27.7017 215.567 27.7594 215.273 27.8757C214.994 27.9921 214.729 28.2038 214.479 28.511C214.229 28.8181 213.986 29.2426 213.75 29.7845C213.514 30.3117 213.292 30.993 213.085 31.8282C212.922 32.4437 212.781 33.0739 212.662 33.7188C212.543 34.3637 212.483 34.9209 212.482 35.3902C212.479 36.6369 212.954 37.2618 213.907 37.2651C214.567 37.2673 215.184 36.9981 215.757 36.4574C216.345 35.9021 216.912 35.1193 217.457 34.1092L218.204 34.4637C217.85 35.1665 217.497 35.7887 217.143 36.3301C216.79 36.8569 216.408 37.3029 215.996 37.6682C215.599 38.0189 215.166 38.2814 214.696 38.4558C214.226 38.6302 213.698 38.7164 213.111 38.7144ZM224.671 38.7538C223.981 38.7514 223.476 38.5664 223.154 38.1986C222.847 37.8162 222.694 37.3244 222.696 36.7231C222.696 36.5031 222.712 36.2758 222.742 36.0412C222.786 35.8067 222.845 35.5649 222.919 35.3158L224.762 28.6781L222.848 28.6715L223.093 27.6824L227.693 26.796L225.118 36.0053C225.073 36.1812 225.051 36.3424 225.05 36.4891C225.049 36.8997 225.24 37.1057 225.621 37.107C225.973 37.1082 226.369 36.9262 226.81 36.5611C227.266 36.1813 227.715 35.6768 228.156 35.0477C228.598 34.4185 229.01 33.6866 229.394 32.8519C229.792 32.0026 230.109 31.109 230.347 30.1711L231.124 27.0717L233.5 27.0798L230.945 37.1252L231.34 37.3025L233.635 34.8023L234.294 35.2446L232.859 37.0657C232.329 37.7679 231.866 38.2283 231.469 38.447C231.073 38.6656 230.699 38.7744 230.347 38.7732C229.789 38.7713 229.394 38.6232 229.16 38.3291C228.941 38.0204 228.831 37.6826 228.832 37.316C228.833 37.1253 228.855 36.9201 228.9 36.7002C228.944 36.4804 228.989 36.2898 229.033 36.1287L229.411 34.6559L229.191 34.5892C228.897 35.1309 228.595 35.6578 228.285 36.1701C227.976 36.6677 227.638 37.1066 227.27 37.4867C226.917 37.8668 226.527 38.1735 226.102 38.4067C225.676 38.6399 225.199 38.7556 224.671 38.7538ZM238.42 38.8007C237.862 38.7988 237.415 38.6506 237.079 38.3561C236.728 38.0469 236.553 37.6576 236.554 37.1883C236.555 36.763 236.688 36.3968 236.953 36.0897C237.217 35.7826 237.577 35.6298 238.032 35.6313C238.384 35.6325 238.662 35.7362 238.867 35.9422C239.072 36.1336 239.174 36.3906 239.173 36.7132C239.172 37.1532 239.024 37.4827 238.731 37.7017L238.884 37.8343C239.06 37.8055 239.244 37.6962 239.435 37.5061C239.553 37.3892 239.67 37.2283 239.788 37.0233C239.906 36.8184 240.039 36.5182 240.187 36.1227C240.334 35.7125 240.504 35.1778 240.697 34.5184C240.889 33.8591 241.119 33.0019 241.385 31.9468L242.341 28.166L240.757 28.1606L241.024 27.1055L245.291 27.1201L246.155 33.745L246.265 33.7454L250.505 27.1378L253.453 27.1479L250.942 37.1934L251.337 37.3707L253.632 34.8705L254.291 35.3128L252.856 37.1339C252.341 37.8215 251.878 38.2819 251.467 38.5152C251.055 38.7338 250.659 38.8424 250.278 38.8411C249.691 38.8391 249.266 38.6837 249.003 38.3748C248.754 38.0659 248.631 37.7208 248.631 37.3395C248.632 37.1782 248.647 36.9949 248.677 36.7897C248.721 36.5845 248.766 36.4013 248.81 36.2401L250.566 29.2501L250.456 29.2497L249.285 31.1597L244.536 38.5355L243.565 31.1182L243.372 29.2255L243.24 29.2251L242.618 31.731C242.351 32.8301 242.107 33.7459 241.885 34.4785C241.678 35.2111 241.485 35.8118 241.308 36.2805C241.131 36.7493 240.961 37.1227 240.799 37.4008C240.637 37.6642 240.461 37.891 240.27 38.081C239.784 38.5633 239.168 38.8032 238.42 38.8007ZM261.611 37.8458C261.992 37.8471 262.33 37.7675 262.624 37.6072C262.932 37.4323 263.204 37.1985 263.44 36.906C263.69 36.5988 263.896 36.2475 264.058 35.8521C264.235 35.442 264.383 35.0025 264.502 34.5336C264.709 33.7276 264.879 33.0609 265.013 32.5333C265.146 31.9911 265.25 31.5515 265.324 31.2144C265.398 30.8626 265.45 30.5842 265.48 30.3789C265.51 30.1737 265.525 29.9904 265.526 29.8291C265.527 29.2864 265.418 28.8387 265.199 28.4859C264.98 28.1332 264.592 27.9559 264.034 27.954C263.653 27.9527 263.308 28.0395 263 28.2144C262.706 28.3748 262.434 28.6085 262.184 28.9157C261.948 29.2082 261.742 29.5595 261.565 29.9696C261.403 30.365 261.262 30.7972 261.144 31.2661C260.936 32.0721 260.766 32.7462 260.633 33.2884C260.499 33.816 260.396 34.2556 260.321 34.6073C260.247 34.9444 260.195 35.2229 260.165 35.4428C260.135 35.6481 260.12 35.824 260.12 35.9707C260.118 36.5133 260.227 36.961 260.446 37.3138C260.666 37.6665 261.054 37.8439 261.611 37.8458ZM261.498 38.8794C260.296 38.8753 259.387 38.5055 258.773 37.7701C258.174 37.02 257.876 36.0144 257.879 34.753C257.881 33.9024 258.023 33.0155 258.304 32.0925C258.585 31.1694 258.99 30.3275 259.52 29.5666C260.05 28.7911 260.704 28.1553 261.483 27.6593C262.262 27.1633 263.15 26.917 264.147 26.9204C265.35 26.9245 266.251 27.3015 266.85 28.0516C267.464 28.787 267.77 29.7854 267.766 31.0467C267.764 31.8974 267.623 32.7842 267.342 33.7073C267.061 34.6303 266.655 35.4796 266.125 36.2552C265.595 37.016 264.941 37.6445 264.162 38.1405C263.384 38.6365 262.496 38.8828 261.498 38.8794ZM275.745 38.928C274.513 38.9238 273.567 38.6199 272.909 38.0163C272.25 37.398 271.923 36.4803 271.926 35.2629C271.928 34.4269 272.048 33.5253 272.285 32.5581C272.537 31.591 272.913 30.6903 273.414 29.856C273.929 29.0217 274.576 28.3346 275.355 27.7946C276.134 27.2399 277.066 26.9644 278.151 26.9681C279.236 26.9718 280.05 27.1799 280.591 27.5924C281.133 28.005 281.403 28.5632 281.401 29.2672C281.398 30.6752 280.434 31.6473 278.512 32.1834L278.511 32.3374C279.215 32.4278 279.743 32.6716 280.094 33.0688C280.459 33.4513 280.641 33.9726 280.64 34.6326C280.638 35.234 280.505 35.7982 280.239 36.3253C279.989 36.8378 279.643 37.2913 279.202 37.6858C278.761 38.0656 278.239 38.3718 277.637 38.6044C277.05 38.8224 276.419 38.9303 275.745 38.928ZM275.879 37.9164C276.378 37.9181 276.818 37.773 277.2 37.4809C277.597 37.1889 277.877 36.7059 278.04 36.0318C278.099 35.8266 278.151 35.5995 278.196 35.3503C278.24 35.1011 278.263 34.8592 278.264 34.6245C278.265 34.0085 278.12 33.5754 277.827 33.325C277.549 33.0748 277.08 32.9485 276.42 32.9462C276.17 32.9454 275.884 32.9591 275.562 32.9873C275.239 33.0155 274.931 33.0585 274.637 33.1162C274.534 33.5558 274.444 34.0248 274.37 34.5233C274.31 35.0217 274.279 35.5056 274.278 35.975C274.276 36.6789 274.422 37.1781 274.714 37.4724C275.007 37.7668 275.395 37.9148 275.879 37.9164ZM277.928 27.9794C277.606 27.9783 277.305 28.0432 277.026 28.1743C276.747 28.3053 276.482 28.5318 276.232 28.8536C275.997 29.1608 275.761 29.5853 275.525 30.1272C275.304 30.6691 275.082 31.3503 274.86 32.1709C276.18 31.9994 277.164 31.7388 277.81 31.389C278.456 31.0392 278.853 30.5785 279.001 30.007C279.031 29.8458 279.053 29.7065 279.068 29.5893C279.098 29.4574 279.113 29.3034 279.114 29.1274C279.114 28.7754 279.012 28.4964 278.808 28.2904C278.603 28.0843 278.31 27.9807 277.928 27.9794ZM287.587 38.9684C286.765 38.9656 286.172 38.6775 285.807 38.1043C285.456 37.5311 285.282 36.7165 285.285 35.6605C285.287 34.7512 285.422 33.7909 285.688 32.7798C285.955 31.7541 286.331 30.8167 286.818 29.9677C287.318 29.1041 287.922 28.3948 288.627 27.8398C289.347 27.285 290.154 27.009 291.049 27.0121C291.694 27.0143 292.222 27.1774 292.632 27.5015C293.042 27.8256 293.326 28.3399 293.486 29.0444L293.706 29.0452L294.832 27.289L296.02 27.293L293.443 37.3383L293.838 37.5157L296.133 35.0155L296.792 35.4577L295.357 37.2788C294.842 37.9224 294.401 38.3683 294.034 38.6163C293.681 38.8645 293.314 38.9879 292.933 38.9866C292.375 38.9847 291.98 38.8367 291.746 38.5425C291.527 38.2485 291.417 37.9107 291.418 37.5294C291.419 37.3387 291.434 37.1335 291.464 36.9136C291.509 36.6937 291.553 36.5032 291.597 36.342L291.931 35.0231L291.711 34.9564C291.445 35.5275 291.173 36.0619 290.893 36.5596C290.613 37.0427 290.304 37.4669 289.966 37.8325C289.642 38.1834 289.282 38.4608 288.885 38.6648C288.489 38.8688 288.056 38.97 287.587 38.9684ZM288.515 37.2995C288.926 37.3009 289.352 37.0824 289.793 36.6439C290.234 36.1907 290.646 35.6494 291.029 35.0201C291.426 34.3761 291.773 33.7026 292.068 32.9996C292.363 32.2966 292.577 31.6887 292.711 31.1758L292.822 30.7362C292.999 30.0328 293.001 29.4608 292.826 29.0202C292.651 28.5796 292.27 28.3583 291.684 28.3563C291.009 28.354 290.37 28.6818 289.767 29.3397C289.179 29.9831 288.7 30.9714 288.33 32.3048C288.256 32.5539 288.182 32.8397 288.107 33.1621C288.048 33.4699 287.989 33.785 287.929 34.1075C287.884 34.43 287.839 34.7379 287.795 35.031C287.765 35.3243 287.749 35.5809 287.749 35.8009C287.748 36.2702 287.798 36.6371 287.9 36.9014C288.002 37.1658 288.207 37.2985 288.515 37.2995Z" fill="black"/>
</g>
<defs>
<filter id="filter0_d" x="60.4517" y="6.65509" width="256.34" height="60.0938" filterUnits="userSpaceOnUse" color-interpolation-filters="sRGB">
<feFlood flood-opacity="0" result="BackgroundImageFix"/>
<feColorMatrix in="SourceAlpha" type="matrix" values="0 0 0 0 0 0 0 0 0 0 0 0 0 0 0 0 0 0 127 0"/>
<feOffset dy="4"/>
<feGaussianBlur stdDeviation="10"/>
<feColorMatrix type="matrix" values="0 0 0 0 0 0 0 0 0 0 0 0 0 0 0 0 0 0 0.5 0"/>
<feBlend mode="normal" in2="BackgroundImageFix" result="effect1_dropShadow"/>
<feBlend mode="normal" in="SourceGraphic" in2="effect1_dropShadow" result="shape"/>
</filter>
</defs>
</svg>
